<?xml version="1.0" encoding="utf-8"?>
<!-- Generator: Adobe Illustrator 22.1.0, SVG Export Plug-In . SVG Version: 6.00 Build 0)  -->
<svg version="1.1" id="Capa_1" xmlns="http://www.w3.org/2000/svg" xmlns:xlink="http://www.w3.org/1999/xlink" x="0px" y="0px"
	 viewBox="0 0 512 512" style="enable-background:new 0 0 512 512;" xml:space="preserve">
<style type="text/css">
	.st0{fill:#FFFFFF;}
</style>
<g>
	<g>
		<path class="st0" d="M256,0c-49.6,0-90,41.4-90,91s40.4,90,90,90s90-40.4,90-90S305.6,0,256,0z"/>
	</g>
</g>
<g>
	<g>
		<path class="st0" d="M286,181h-30h-30c-21.2,0-41.6,5.5-60.2,14.8c31.6,8.5,61.3,20.8,90.2,37.4c28.9-16.6,58.6-28.9,90.2-37.4
			C327.6,186.5,307.2,181,286,181z"/>
	</g>
</g>
<g>
	<g>
		<path class="st0" d="M482,271c-16.6,0-30,13.4-30,30v60c0,16.6,13.4,30,30,30s30-13.4,30-30v-60C512,284.4,498.6,271,482,271z"/>
	</g>
</g>
<g>
	<g>
		<path class="st0" d="M30,271c-16.6,0-30,13.4-30,30v60c0,16.6,13.4,30,30,30s30-13.4,30-30v-60C60,284.4,46.6,271,30,271z"/>
	</g>
</g>
<g>
	<g>
		<path class="st0" d="M45,211c-8.3,0-15,6.7-15,15v15c33.1,0,60,26.9,60,60v60c0,33.1-26.9,60-60,60v15c0,8.3,6.7,15,15,15
			c76.9,0,138.4,24.3,196,61V259.6C183.1,226.4,120.9,211,45,211z"/>
	</g>
</g>
<g>
	<g>
		<path class="st0" d="M482,241v-15c0-8.3-6.7-15-15-15c-75.9,0-138.1,15.4-196,48.6V512c57.6-36.7,119.1-61,196-61
			c8.3,0,15-6.7,15-15v-15c-33.1,0-60-26.9-60-60v-60C422,267.9,448.9,241,482,241z"/>
	</g>
</g>
</svg>
