<?xml version="1.0" encoding="utf-8"?>
<!-- Generator: Adobe Illustrator 22.1.0, SVG Export Plug-In . SVG Version: 6.00 Build 0)  -->
<svg version="1.1" id="레이어_1" xmlns="http://www.w3.org/2000/svg" xmlns:xlink="http://www.w3.org/1999/xlink" x="0px"
	 y="0px" viewBox="0 0 512 512" style="enable-background:new 0 0 512 512;" xml:space="preserve">
<style type="text/css">
	.st0{fill:#FFFFFF;}
</style>
<path class="st0" d="M211,271h90v30h-90V271z"/>
<path class="st0" d="M415.4,301H331v15c0,8.3-6.7,15-15,15H196c-8.3,0-15-6.7-15-15v-15H96.6c-19.4,0-36.5-12.4-42.7-30.8L0,108.4
	V436c0,24.8,20.2,45,45,45h422c24.8,0,45-20.2,45-45V108.4l-53.9,161.8C451.9,288.6,434.8,301,415.4,301z"/>
<path class="st0" d="M316,31H196c-24.8,0-45,20.2-45,45v15H25.8l56.6,169.7c2.1,6.1,7.8,10.3,14.2,10.3H181v-15c0-8.3,6.7-15,15-15
	h120c8.3,0,15,6.7,15,15v15h84.4c6.5,0,12.2-4.1,14.2-10.3L486.2,91H361V76C361,51.2,340.8,31,316,31z M181,91V76
	c0-8.3,6.7-15,15-15h120c8.3,0,15,6.7,15,15v15H181z"/>
</svg>
